<svg width="181" height="42" fill="none" xmlns="http://www.w3.org/2000/svg"><path d="M13.104.9h-.1v40.2h4.89V22.469h19.293l-.046 18.53v.101h4.855V.9h-4.855V1l.046 15.617H17.894L17.86 1V.9h-4.755ZM6.362 6.21h-.1v29.58h4.855V6.21H6.362Zm37.62 0h-.1v29.58h4.857V6.21h-4.755ZM1 10.457H.9v21.086h3.476V10.458H1Zm49.724 0h-.1v21.086H54.1V10.458h-3.376Z" fill="#fff" stroke="#fff" stroke-width=".2"/><path d="M134.725 29.998c.379.035.978.052 1.797.052 1.428 0 2.7-.121 3.818-.365l.039-.008v-1.873l-.063.018a13.408 13.408 0 0 1-3.573.492c-.882 0-1.548-.06-2-.18-.432-.136-.731-.354-.903-.652-.158-.3-.239-.767-.239-1.404v-5.143c0-.69.073-1.192.216-1.511.157-.333.424-.558.804-.675h.002c.401-.136 1.025-.205 1.875-.205 1.124 0 2.34.172 3.646.517l.063.017v-1.819l-.039-.009a15.122 15.122 0 0 0-3.4-.39c-.655 0-1.164.016-1.526.051-.362.018-.773.061-1.232.13-.463.07-.847.202-1.149.397-.285.177-.567.441-.847.79-.519.62-.773 1.639-.773 3.045v4.623c0 .783.099 1.439.298 1.966.198.54.438.954.724 1.238.286.285.687.496 1.2.636.477.14.898.227 1.262.262Zm-4.945-6.188h.05v-2.928c0-.237.001-.454.003-.653.003-.486.005-.869-.015-1.18-.028-.442-.102-.75-.289-1.02-.409-.59-1.088-.88-1.851-1.025-.762-.145-1.618-.145-2.39-.145h-.008c-.973 0-1.784 0-2.446.145-.667.146-1.188.439-1.578 1.026-.278.42-.419.738-.49 1.151-.069.41-.069.911-.069 1.695v6.665c0 .578-.001 1.025.042 1.367.047.37.145.63.358.805.212.173.527.255.988.296.461.041 1.079.041 1.904.041h5.428v-1.848h-3.589a17.8 17.8 0 0 0-.564.013c-.475.017-1.035.036-1.534-.013-.358-.036-.678-.106-.906-.234-.225-.127-.359-.308-.359-.571V23.81h7.315Zm-2.738-4.992.002.002c.196.144.377.28.511.474.132.193.221.449.221.835v1.994h-5.003V20.13c0-.387.081-.643.207-.836.128-.194.304-.33.507-.473h.001c.193-.146.415-.21.704-.237.226-.022.489-.02.808-.019l.285.001h.294c.324-.003.583-.004.802.018.278.027.483.091.661.235Z" fill="#fff" stroke="#1E1E1E" stroke-width=".1"/><path d="M110.203 16.811h-.1V30.1h4.705c1.596 0 2.756-.194 3.461-.598.719-.412 1.072-1.122 1.072-2.104V25.2a1.83 1.83 0 0 0-.67-1.446c-.376-.343-.856-.582-1.437-.718.47-.137.837-.331 1.094-.588l.002-.002c.305-.32.452-.757.452-1.3v-1.754c0-.575-.105-1.039-.324-1.383-.204-.343-.665-.778-1.264-1l-.001-.001c-.328-.12-.695-.168-1.108-.187a20.52 20.52 0 0 0-1.014-.01h-4.868Zm6.87 7.755.004.006c.126.18.194.432.194.77v1.976c0 .229-.045.417-.131.57a.933.933 0 0 1-.393.37c-.362.19-1.002.29-1.939.29h-2.636V23.97h2.636c.436 0 .759.014.971.04h.006c.209.013.451.058.728.137.263.088.447.23.56.42Zm-.724-2.37c-.308.222-.839.343-1.618.343h-2.559v-4.237h2.501c.807 0 1.362.102 1.684.29.309.178.471.49.471.961v1.533c0 .515-.165.877-.479 1.11Z" fill="#fff" stroke="#1E1E1E" stroke-width=".2"/><path d="M62 12h2.412v18H62V12Zm11.145 0h2.412v18h-2.412V12Zm-9.848 7.536h11v2.784h-11v-2.784ZM89.114 30l4.211-8.373 1.617 1.897L91.815 30h-2.701Zm16.881 0-3.11-6.476 1.6-1.897L108.696 30h-2.701Zm-5.953-2.59-.675-.324 6.379-10.177h2.63L99.829 30h-1.848l-8.547-13.09h2.63l6.379 10.176-.675.324v-10.5h2.274v10.5ZM77.063 30V16.91h2.096v11.587l-.639-.209 6.337-11.379h2.75V30h-2.095V18.25l.655.232L79.748 30h-2.685Zm88.874 0V16.91h3.593l4.432 11.656h-.95l4.394-11.657H181V30h-2.272V17.904h.634L174.651 30h-2.365l-4.711-12.05.633-.023V30h-2.271Zm-24.102 0V16.91h2.219v10.546l-.666-.324 6.159-10.223h2.526L143.883 30h-2.048Zm7.951 0-3.003-6.476 1.553-1.897L152.38 30h-2.594Z" fill="#fff"/><path d="M154.194 28.148v.001c.241.582.627 1.007 1.159 1.272a4.74 4.74 0 0 0 1.528.498c.509.088 1.268.131 2.277.131.6 0 1.2-.017 1.8-.052h.002a6.98 6.98 0 0 0 1.476-.314c.479-.158.85-.378 1.109-.663.627-.69.935-1.778.935-3.255v-4.363c0-.8-.087-1.506-.262-2.118v-.002c-.19-.592-.421-1.049-.695-1.367-.276-.32-.663-.559-1.158-.717h-.001a6.796 6.796 0 0 0-1.357-.262c-.413-.052-1.029-.078-1.849-.078a29.2 29.2 0 0 0-1.776.052h-.002a6.484 6.484 0 0 0-1.501.34c-.478.158-.842.388-1.086.691-.289.336-.52.802-.695 1.395-.175.594-.262 1.283-.262 2.066v4.363c0 .99.119 1.786.358 2.383Zm7.259-.063-.002.001a2.32 2.32 0 0 1-.856.28c-.297.034-.775.052-1.437.052s-1.14-.018-1.436-.052a2.326 2.326 0 0 1-.857-.28l-.002-.001a1.183 1.183 0 0 1-.589-.648c-.108-.321-.163-.765-.163-1.333v-5.091c0-.778.087-1.33.255-1.666.167-.35.446-.575.842-.675h.002c.418-.12 1.067-.18 1.948-.18.882 0 1.522.06 1.925.18h.002c.412.1.699.325.865.674l.001.001c.167.335.254.888.254 1.666v5.09c0 .57-.063 1.013-.186 1.334-.106.3-.295.515-.566.648Z" fill="#fff" stroke="#1E1E1E" stroke-width=".1"/></svg>