<svg width="40" height="40" fill="none" xmlns="http://www.w3.org/2000/svg"><g clip-path="url(#a)"><path d="M40 29.85c0 .218-.007.691-.02 1.061-.035.897-.103 2.055-.213 2.582-.164.795-.404 1.541-.726 2.164a7.59 7.59 0 0 1-1.431 1.966 7.727 7.727 0 0 1-1.966 1.425c-.623.322-1.377.562-2.178.726-.52.103-1.672.178-2.562.206-.37.013-.842.02-1.061.02h-19.7c-.218 0-.691-.007-1.06-.02-.898-.035-2.056-.103-2.583-.213-.795-.164-1.541-.404-2.164-.726A7.591 7.591 0 0 1 2.37 37.61a7.728 7.728 0 0 1-1.425-1.966C.623 35.02.384 34.267.22 33.466c-.103-.52-.178-1.672-.205-2.562A73.686 73.686 0 0 1 0 29.85V10.151c0-.22.007-.692.02-1.062.035-.897.103-2.055.213-2.582.164-.795.404-1.541.726-2.165a7.729 7.729 0 0 1 1.425-1.965A7.729 7.729 0 0 1 4.349.952C4.973.63 5.726.39 6.527.226 7.048.123 8.2.048 9.09.021 9.459.007 9.932 0 10.151 0h19.698c.22 0 .692.007 1.062.02.897.035 2.055.103 2.582.213.795.164 1.541.404 2.164.726a7.59 7.59 0 0 1 1.966 1.431 7.728 7.728 0 0 1 1.425 1.966c.322.623.562 1.377.726 2.178.103.52.178 1.671.206 2.562.013.37.02.842.02 1.062v19.691Z" fill="url(#b)"/><path fill-rule="evenodd" clip-rule="evenodd" d="M30.52 9.575a14.175 14.175 0 0 0-10.088-4.178c-7.863 0-14.254 6.397-14.26 14.254 0 2.513.657 4.965 1.903 7.123l-2.02 7.39 7.562-1.98a14.214 14.214 0 0 0 6.814 1.734h.007c7.857 0 14.254-6.398 14.26-14.254 0-3.815-1.486-7.397-4.177-10.089ZM20.439 31.507c-2.13 0-4.219-.576-6.034-1.65l-.431-.254-4.487 1.178 1.199-4.37-.28-.445a11.84 11.84 0 0 1-1.816-6.309c0-6.534 5.322-11.849 11.856-11.849 3.165 0 6.144 1.233 8.377 3.473a11.747 11.747 0 0 1 3.466 8.383c-.007 6.528-5.322 11.843-11.85 11.843Zm6.5-8.87c-.356-.178-2.11-1.041-2.431-1.158-.329-.116-.562-.178-.802.178-.24.357-.917 1.158-1.13 1.398-.205.24-.418.267-.774.089-.356-.178-1.506-.555-2.863-1.767-1.061-.945-1.774-2.11-1.98-2.466-.205-.356-.02-.548.159-.726.157-.158.356-.418.534-.623.178-.206.24-.357.356-.596.116-.24.061-.446-.027-.623-.09-.179-.802-1.932-1.096-2.644-.288-.692-.583-.603-.802-.61-.205-.014-.445-.014-.685-.014-.24 0-.623.09-.952.446-.329.356-1.246 1.219-1.246 2.972 0 1.754 1.274 3.445 1.452 3.685.178.24 2.513 3.836 6.089 5.377.85.37 1.513.589 2.034.753.856.274 1.63.233 2.247.144.684-.103 2.11-.863 2.404-1.692.294-.829.294-1.548.205-1.692-.103-.164-.335-.253-.692-.431Z" fill="#fff"/></g><defs><linearGradient id="b" x1="20.002" y1="40.003" x2="20.002" y2="0" gradientUnits="userSpaceOnUse"><stop stop-color="#25CF43"/><stop offset="1" stop-color="#61FD7D"/></linearGradient><clipPath id="a"><path fill="#fff" d="M0 0h40v40H0z"/></clipPath></defs></svg>