<svg width="60" height="40" fill="none" xmlns="http://www.w3.org/2000/svg"><g clip-path="url(#a)"><path d="M58.746 6.246c-.69-2.459-2.723-4.395-5.304-5.052C48.762 0 30 0 30 0S11.238 0 6.558 1.194c-2.581.657-4.614 2.593-5.304 5.052C0 10.702 0 20 0 20s0 9.297 1.254 13.754c.69 2.459 2.723 4.395 5.304 5.052C11.238 40 30 40 30 40s18.763 0 23.442-1.194c2.581-.657 4.614-2.593 5.304-5.052C60 29.298 60 20 60 20s0-9.298-1.254-13.754Z" fill="#ED1D24"/><path d="M24 24.667c0 1.51 1.609 2.475 2.941 1.764l8.75-4.666c1.412-.753 1.412-2.776 0-3.53l-8.75-4.666c-1.332-.71-2.941.255-2.941 1.764v9.334Z" fill="#fff"/></g><defs><clipPath id="a"><path fill="#fff" d="M0 0h60v40H0z"/></clipPath></defs></svg>