<svg width="181" height="42" viewBox="0 0 181 42" fill="none" xmlns="http://www.w3.org/2000/svg">
<path d="M13.1036 0.9H13.0036V1L13.0036 41V41.1H13.1036H17.7944H17.8944V41V22.4687H37.1866L37.1413 40.9998L37.141 41.1H37.2413H41.8964H41.9964V41V1V0.9H41.8964H37.2413H37.141L37.1413 1.00029L37.1866 16.6174H17.8941L17.8587 0.999773L17.8585 0.9H17.7587H13.1036ZM6.36216 6.20973H6.26216V6.30973V35.6903V35.7903H6.36216H11.0173H11.1173V35.6903V6.30973V6.20973H11.0173H6.36216ZM43.9827 6.20973H43.8827V6.30973V35.6903V35.7903H43.9827H48.6378H48.7378V35.6903V6.30973V6.20973H48.6378H43.9827ZM1 10.4575H0.9V10.5575V31.4425V31.5425H1H4.27582H4.37582V31.4425V10.5575V10.4575H4.27582H1ZM50.7242 10.4575H50.6242V10.5575V31.4425V31.5425H50.7242H54H54.1V31.4425V10.5575V10.4575H54H50.7242Z" fill="#fff" stroke="#fff" stroke-width="0.2"/>
<path d="M134.725 29.9978L134.725 29.9978C135.104 30.0327 135.703 30.05 136.522 30.05C137.95 30.05 139.222 29.9286 140.34 29.6852L140.379 29.6767V29.6364V27.8701V27.8045L140.316 27.8219C139.125 28.1498 137.934 28.3136 136.743 28.3136C135.861 28.3136 135.195 28.2531 134.743 28.1338C134.311 27.998 134.012 27.7797 133.84 27.4824C133.682 27.1815 133.601 26.7155 133.601 26.0779V20.9351C133.601 20.2445 133.674 19.7426 133.817 19.4235C133.974 19.0912 134.241 18.8665 134.621 18.7491L134.621 18.7491L134.623 18.7487C135.024 18.6129 135.648 18.5435 136.498 18.5435C137.622 18.5435 138.838 18.7159 140.144 19.0614L140.207 19.0779V19.013V17.2987V17.2589L140.168 17.25C139.035 16.9894 137.902 16.8591 136.768 16.8591C136.113 16.8591 135.604 16.8764 135.242 16.9112C134.88 16.9286 134.469 16.9721 134.01 17.0415C133.547 17.1115 133.163 17.2431 132.861 17.4383C132.576 17.6152 132.294 17.8791 132.014 18.228C131.495 18.8479 131.241 19.8669 131.241 21.2727V25.8961C131.241 26.679 131.34 27.3347 131.539 27.8616C131.737 28.4022 131.977 28.8164 132.263 29.1004C132.549 29.3852 132.95 29.5964 133.463 29.7364C133.94 29.8755 134.361 29.9628 134.725 29.9978Z" fill="#fff" stroke="#1E1E1E" stroke-width="0.1"/>
<path d="M129.78 23.81H129.83V23.76V20.882C129.83 20.6454 129.831 20.4285 129.833 20.229C129.836 19.7427 129.838 19.36 129.818 19.0482C129.79 18.6068 129.716 18.2981 129.529 18.0294C129.12 17.4392 128.441 17.1482 127.678 17.0036C126.916 16.8591 126.06 16.8591 125.288 16.8591H125.285L125.28 16.8591C124.307 16.8591 123.496 16.8591 122.834 17.0039C122.167 17.1496 121.646 17.4428 121.256 18.0302C120.978 18.4498 120.837 18.7678 120.766 19.1814C120.697 19.5905 120.697 20.0924 120.697 20.8761V20.882V27.3967C120.697 27.4456 120.697 27.4936 120.697 27.5407C120.697 28.1192 120.696 28.5658 120.739 28.9079C120.786 29.2787 120.884 29.5385 121.097 29.7133C121.309 29.8862 121.624 29.9683 122.085 30.0091C122.546 30.05 123.164 30.05 123.989 30.05H123.992H123.999H124.006H124.013H124.02H124.027H124.034H124.042H124.049H124.056H124.063H124.071H124.078H124.085H124.093H124.1H124.108H124.115H124.123H124.13H124.138H124.145H124.153H124.161H124.168H124.176H124.184H124.191H124.199H124.207H124.215H124.222H124.23H124.238H124.246H124.254H124.262H124.27H124.278H124.286H124.294H124.302H124.31H124.318H124.326H124.334H124.342H124.351H124.359H124.367H124.375H124.384H124.392H124.4H124.409H124.417H124.425H124.434H124.442H124.451H124.459H124.468H124.476H124.485H124.493H124.502H124.511H124.519H124.528H124.537H124.545H124.554H124.563H124.572H124.58H124.589H124.598H124.607H124.616H124.625H124.634H124.642H124.651H124.66H124.669H124.678H124.687H124.696H124.706H124.715H124.724H124.733H124.742H124.751H124.76H124.77H124.779H124.788H124.797H124.807H124.816H124.825H124.835H124.844H124.853H124.863H124.872H124.882H124.891H124.901H124.91H124.92H124.929H124.939H124.948H124.958H124.967H124.977H124.987H124.996H125.006H125.016H125.025H125.035H125.045H125.055H125.064H125.074H125.084H125.094H125.104H125.114H125.123H125.133H125.143H125.153H125.163H125.173H125.183H125.193H125.203H125.213H125.223H125.233H125.243H125.253H125.263H125.273H125.284H125.294H125.304H125.314H125.324H125.334H125.345H125.355H125.365H125.375H125.386H125.396H125.406H125.417H125.427H125.437H125.448H125.458H125.468H125.479H125.489H125.5H125.51H125.521H125.531H125.542H125.552H125.563H125.573H125.584H125.594H125.605H125.615H125.626H125.637H125.647H125.658H125.668H125.679H125.69H125.7H125.711H125.722H125.733H125.743H125.754H125.765H125.776H125.786H125.797H125.808H125.819H125.83H125.84H125.851H125.862H125.873H125.884H125.895H125.906H125.917H125.927H125.938H125.949H125.96H125.971H125.982H125.993H126.004H126.015H126.026H126.037H126.048H126.059H126.07H126.081H126.092H126.104H126.115H126.126H126.137H126.148H126.159H126.17H126.181H126.192H126.204H126.215H126.226H126.237H126.248H126.26H126.271H126.282H126.293H126.304H126.316H126.327H126.338H126.349H126.361H126.372H126.383H126.395H126.406H126.417H126.429H126.44H126.451H126.463H126.474H126.485H126.497H126.508H126.519H126.531H126.542H126.554H126.565H126.576H126.588H126.599H126.611H126.622H126.633H126.645H126.656H126.668H126.679H126.691H126.702H126.714H126.725H126.737H126.748H126.76H126.771H126.783H126.794H126.806H126.817H126.829H126.84H126.852H126.863H126.875H126.886H126.898H126.909H126.921H126.933H126.944H126.956H126.967H126.979H126.99H127.002H127.014H127.025H127.037H127.048H127.06H127.072H127.083H127.095H127.106H127.118H127.13H127.141H127.153H127.164H127.176H127.188H127.199H127.211H127.223H127.234H127.246H127.258H127.269H127.281H127.292H127.304H127.316H127.327H127.339H127.351H127.362H127.374H127.386H127.397H127.409H127.421H127.432H127.444H127.456H127.467H127.479H127.49H127.502H127.514H127.525H127.537H127.549H127.56H127.572H127.584H127.595H127.607H127.619H127.63H127.642H127.654H127.665H127.677H127.689H127.7H127.712H127.723H127.735H127.747H127.758H127.77H127.782H127.793H127.805H127.817H127.828H127.84H127.851H127.863H127.875H127.886H127.898H127.909H127.921H127.933H127.944H127.956H127.967H127.979H127.991H128.002H128.014H128.025H128.037H128.048H128.06H128.072H128.083H128.095H128.106H128.118H128.129H128.141H128.152H128.164H128.176H128.187H128.199H128.21H128.222H128.233H128.245H128.256H128.268H128.279H128.291H128.302H128.313H128.325H128.336H128.348H128.359H128.371H128.382H128.394H128.405H128.416H128.428H128.439H128.451H128.462H128.473H128.485H128.496H128.508H128.519H128.53H128.542H128.553H128.564H128.576H128.587H128.598H128.609H128.621H128.632H128.643H128.655H128.666H128.677H128.688H128.7H128.711H128.722H128.733H128.745H128.756H128.767H128.778H128.789H128.8H128.812H128.823H128.834H128.845H128.856H128.867H128.878H128.889H128.901H128.912H128.923H128.934H128.945H128.956H128.967H128.978H128.989H129H129.011H129.022H129.033H129.044H129.055H129.066H129.077H129.088H129.098H129.109H129.12H129.131H129.142H129.153H129.164H129.174H129.185H129.196H129.207H129.218H129.228H129.239H129.25H129.261H129.271H129.282H129.293H129.303H129.314H129.325H129.335H129.346H129.357H129.367H129.417V30V28.2517V28.2017H129.367H129.358H129.349H129.34H129.331H129.322H129.313H129.304H129.295H129.287H129.278H129.269H129.26H129.251H129.242H129.233H129.224H129.216H129.207H129.198H129.189H129.18H129.172H129.163H129.154H129.145H129.137H129.128H129.119H129.111H129.102H129.093H129.085H129.076H129.067H129.059H129.05H129.041H129.033H129.024H129.016H129.007H128.999H128.99H128.982H128.973H128.965H128.956H128.948H128.939H128.931H128.922H128.914H128.905H128.897H128.889H128.88H128.872H128.864H128.855H128.847H128.839H128.83H128.822H128.814H128.805H128.797H128.789H128.781H128.772H128.764H128.756H128.748H128.739H128.731H128.723H128.715H128.707H128.699H128.691H128.682H128.674H128.666H128.658H128.65H128.642H128.634H128.626H128.618H128.61H128.602H128.594H128.586H128.578H128.57H128.562H128.554H128.546H128.538H128.53H128.522H128.514H128.506H128.498H128.491H128.483H128.475H128.467H128.459H128.451H128.443H128.436H128.428H128.42H128.412H128.405H128.397H128.389H128.381H128.374H128.366H128.358H128.35H128.343H128.335H128.327H128.32H128.312H128.304H128.297H128.289H128.282H128.274H128.266H128.259H128.251H128.244H128.236H128.228H128.221H128.213H128.206H128.198H128.191H128.183H128.176H128.168H128.161H128.153H128.146H128.138H128.131H128.124H128.116H128.109H128.101H128.094H128.087H128.079H128.072H128.064H128.057H128.05H128.042H128.035H128.028H128.021H128.013H128.006H127.999H127.991H127.984H127.977H127.97H127.962H127.955H127.948H127.941H127.933H127.926H127.919H127.912H127.905H127.898H127.89H127.883H127.876H127.869H127.862H127.855H127.848H127.84H127.833H127.826H127.819H127.812H127.805H127.798H127.791H127.784H127.777H127.77H127.763H127.756H127.749H127.742H127.735H127.728H127.721H127.714H127.707H127.7H127.693H127.686H127.679H127.672H127.665H127.658H127.651H127.645H127.638H127.631H127.624H127.617H127.61H127.603H127.596H127.59H127.583H127.576H127.569H127.562H127.555H127.549H127.542H127.535H127.528H127.522H127.515H127.508H127.501H127.495H127.488H127.481H127.474H127.468H127.461H127.454H127.447H127.441H127.434H127.427H127.421H127.414H127.407H127.401H127.394H127.387H127.381H127.374H127.368H127.361H127.354H127.348H127.341H127.335H127.328H127.321H127.315H127.308H127.302H127.295H127.289H127.282H127.275H127.269H127.262H127.256H127.249H127.243H127.236H127.23H127.223H127.217H127.21H127.204H127.197H127.191H127.184H127.178H127.171H127.165H127.159H127.152H127.146H127.139H127.133H127.126H127.12H127.114H127.107H127.101H127.094H127.088H127.082H127.075H127.069H127.063H127.056H127.05H127.044H127.037H127.031H127.025H127.018H127.012H127.006H126.999H126.993H126.987H126.98H126.974H126.968H126.961H126.955H126.949H126.943H126.936H126.93H126.924H126.918H126.911H126.905H126.899H126.893H126.886H126.88H126.874H126.868H126.861H126.855H126.849H126.843H126.837H126.83H126.824H126.818H126.812H126.806H126.799H126.793H126.787H126.781H126.775H126.769H126.762H126.756H126.75H126.744H126.738H126.732H126.726H126.72H126.713H126.707H126.701H126.695H126.689H126.683H126.677H126.671H126.665H126.658H126.652H126.646H126.64H126.634H126.628H126.622H126.616H126.61H126.604H126.598H126.592H126.586H126.58H126.573H126.567H126.561H126.555H126.549H126.543H126.537H126.531H126.525H126.519H126.513H126.507H126.501H126.495H126.489H126.483H126.477H126.471H126.465H126.459H126.453H126.447H126.441H126.435H126.429H126.423H126.417H126.411H126.405H126.399H126.393H126.387H126.381H126.376H126.37H126.364H126.358H126.352H126.346H126.34H126.334H126.328H126.322H126.316H126.31H126.304H126.298H126.292H126.286H126.28H126.275H126.269H126.263H126.257H126.251H126.245H126.239H126.233H126.227H126.221H126.215H126.209H126.204H126.198H126.192H126.186H126.18H126.174H126.168H126.162H126.156H126.151H126.145H126.139H126.133H126.127H126.121H126.115H126.109H126.103H126.098H126.092H126.086H126.08H126.074H126.068H126.062H126.056H126.051H126.045H126.039H126.033H126.027H126.021H126.015H126.01H126.004H125.998H125.992H125.986H125.98H125.974H125.968H125.963H125.957H125.951H125.945H125.939H125.933H125.927H125.922H125.916H125.91H125.904H125.898H125.892H125.886H125.881H125.875H125.869H125.863H125.857H125.851H125.846H125.84H125.834H125.828C125.665 28.2017 125.473 28.2083 125.264 28.2155C124.789 28.2319 124.229 28.2512 123.73 28.2019C123.372 28.1665 123.052 28.096 122.824 27.9676C122.599 27.8408 122.465 27.6598 122.465 27.3967V27.3921V27.3875V27.383V27.3785V27.374V27.3695V27.3651V27.3606V27.3562V27.3518V27.3474V27.343V27.3386V27.3343V27.3299V27.3256V27.3213V27.317V27.3128V27.3085V27.3043V27.3001V27.2958V27.2917V27.2875V27.2833V27.2792V27.275V27.2709V27.2668V27.2627V27.2587V27.2546V27.2506V27.2466V27.2425V27.2385V27.2346V27.2306V27.2266V27.2227V27.2188V27.2149V27.211V27.2071V27.2032V27.1994V27.1955V27.1917V27.1879V27.1841V27.1803V27.1765V27.1728V27.169V27.1653V27.1615V27.1578V27.1541V27.1505V27.1468V27.1431V27.1395V27.1359V27.1322V27.1286V27.125V27.1215V27.1179V27.1143V27.1108V27.1072V27.1037V27.1002V27.0967V27.0932V27.0898V27.0863V27.0828V27.0794V27.076V27.0725V27.0691V27.0657V27.0624V27.059V27.0556V27.0523V27.0489V27.0456V27.0423V27.039V27.0357V27.0324V27.0291V27.0258V27.0226V27.0193V27.0161V27.0129V27.0096V27.0064V27.0032V27.0001V26.9969V26.9937V26.9905V26.9874V26.9843V26.9811V26.978V26.9749V26.9718V26.9687V26.9656V26.9625V26.9594V26.9564V26.9533V26.9503V26.9473V26.9442V26.9412V26.9382V26.9352V26.9322V26.9292V26.9262V26.9233V26.9203V26.9174V26.9144V26.9115V26.9085V26.9056V26.9027V26.8998V26.8969V26.894V26.8911V26.8882V26.8854V26.8825V26.8796V26.8768V26.8739V26.8711V26.8683V26.8654V26.8626V26.8598V26.857V26.8542V26.8514V26.8486V26.8458V26.843V26.8403V26.8375V26.8347V26.832V26.8292V26.8265V26.8237V26.821V26.8183V26.8156V26.8128V26.8101V26.8074V26.8047V26.802V26.7993V26.7966V26.794V26.7913V26.7886V26.7859V26.7833V26.7806V26.7779V26.7753V26.7726V26.77V26.7673V26.7647V26.7621V26.7594V26.7568V26.7542V26.7516V26.7489V26.7463V26.7437V26.7411V26.7385V26.7359V26.7333V26.7307V26.7281V26.7255V26.7229V26.7203V26.7178V26.7152V26.7126V26.71V26.7075V26.7049V26.7023V26.6997V26.6972V26.6946V26.6921V26.6895V26.6869V26.6844V26.6818V26.6793V26.6767V26.6742V26.6716V26.6691V26.6665V26.664V26.6614V26.6589V26.6563V26.6538V26.6512V26.6487V26.6461V26.6436V26.6411V26.6385V26.636V26.6334V26.6309V26.6284V26.6258V26.6233V26.6207V26.6182V26.6156V26.6131V26.6106V26.608V26.6055V26.6029V26.6004V26.5978V26.5953V26.5927V26.5902V26.5876V26.5851V26.5825V26.58V26.5774V26.5748V26.5723V26.5697V26.5672V26.5646V26.562V26.5595V26.5569V26.5543V26.5517V26.5492V26.5466V26.544V26.5414V26.5388V26.5362V26.5336V26.531V26.5284V26.5258V26.5232V26.5206V26.518V26.5154V26.5128V26.5102V26.5075V26.5049V26.5023V26.4996V26.497V26.4944V26.4917V26.4891V26.4864V26.4838V26.4811V26.4784V26.4757V26.4731V26.4704V26.4677V26.465V26.4623V26.4596V26.4569V26.4542V26.4515V26.4488V26.4461V26.4433V26.4406V26.4379V26.4351V26.4324V26.4296V26.4269V26.4241V26.4213V26.4185V26.4158V26.413V26.4102V26.4074V26.4046V26.4018V26.3989V26.3961V26.3933V26.3904V26.3876V26.3847V26.3819V26.379V26.3761V26.3733V26.3704V26.3675V26.3646V26.3617V26.3588V26.3558V26.3529V26.35V26.347V26.3441V26.3411V26.3381V26.3352V26.3322V26.3292V26.3262V26.3232V26.3201V26.3171V26.3141V26.311V26.308V26.3049V26.3019V26.2988V26.2957V26.2926V26.2895V26.2864V26.2833V26.2801V26.277V26.2739V26.2707V26.2675V26.2643V26.2612V26.258V26.2548V26.2515V26.2483V26.2451V26.2418V26.2386V26.2353V26.232V26.2287V26.2254V26.2221V26.2188V26.2155V26.2121V26.2088V26.2054V26.2021V26.1987V26.1953V26.1919V26.1885V26.185V26.1816V26.1781V26.1747V26.1712V26.1677V26.1642V26.1607V26.1572V26.1537V26.1501V26.1466V26.143V26.1394V26.1358V26.1322V26.1286V26.125V26.1213V26.1177V26.114V26.1103V26.1066V26.1029V26.0992V26.0954V26.0917V26.0879V26.0842V26.0804V26.0766V26.0728V26.0689V26.0651V26.0612V26.0574V26.0535V26.0496V26.0457V26.0418V26.0378V26.0339V26.0299V26.0259V26.0219V26.0179V26.0139V26.0099V26.0058V26.0017V25.9977V25.9936V25.9894V25.9853V25.9812V25.977V25.9728V25.9686V25.9644V25.9602V25.956V25.9517V25.9475V25.9432V25.9389V25.9346V25.9302V25.9259V25.9215V25.9171V25.9128V25.9083V25.9039V25.8995V25.895V25.8905V25.886V25.8815V25.877V25.8724V25.8679V25.8633V25.8587V25.8541V25.8495V25.8448V25.8401V25.8355V25.8308V25.826V25.8213V25.8165V25.8118V25.807V25.8022V25.7973V25.7925V25.7876V25.7828V25.7779V25.7729V25.768V25.763V25.7581V25.7531V25.7481V25.743V25.738V25.7329V25.7278V25.7227V25.7176V25.7124V25.7073V25.7021V25.6969V25.6917V25.6864V23.81H129.78ZM127.042 18.8181L127.042 18.8181L127.044 18.8196C127.24 18.9636 127.421 19.0992 127.555 19.2941C127.687 19.4873 127.776 19.7428 127.776 20.1289V22.1231H122.773V20.1289C122.773 19.7418 122.854 19.4863 122.98 19.2932C123.108 19.0989 123.284 18.9634 123.487 18.8201L123.487 18.8201L123.488 18.8192C123.681 18.6744 123.903 18.6101 124.192 18.5826C124.418 18.5611 124.681 18.5625 125 18.5642C125.09 18.5646 125.185 18.5651 125.285 18.5651C125.389 18.5651 125.487 18.5646 125.579 18.5641C125.903 18.5625 126.162 18.5612 126.381 18.5826C126.659 18.61 126.864 18.6741 127.042 18.8181Z" fill="#fff" stroke="#1E1E1E" stroke-width="0.1"/>
<path d="M110.203 16.8115H110.103V16.9115V30V30.1H110.203H114.808C116.404 30.1 117.564 29.9056 118.269 29.5019C118.988 29.0901 119.341 28.3797 119.341 27.3984V25.2002C119.341 24.6199 119.116 24.1356 118.671 23.754C118.295 23.4106 117.815 23.1723 117.234 23.0356C117.704 22.8992 118.071 22.7049 118.328 22.4476L118.328 22.4476L118.33 22.4459C118.635 22.1267 118.782 21.6892 118.782 21.1466V19.3921C118.782 18.8175 118.677 18.353 118.458 18.0085C118.254 17.6665 117.793 17.231 117.194 17.0082L117.194 17.0082L117.193 17.0079C116.865 16.8886 116.498 16.8403 116.085 16.8211C115.778 16.8069 115.441 16.8085 115.071 16.8103C114.942 16.8109 114.81 16.8115 114.673 16.8115H110.203ZM117.073 24.5658L117.073 24.5659L117.077 24.5719C117.203 24.7511 117.271 25.0041 117.271 25.3414V27.3178C117.271 27.5465 117.226 27.7355 117.14 27.8889C117.054 28.0417 116.924 28.1648 116.747 28.2577C116.385 28.4472 115.745 28.5488 114.808 28.5488H112.172V23.9692H114.808C115.244 23.9692 115.567 23.9827 115.779 24.0088L115.779 24.009L115.785 24.0093C115.994 24.0222 116.236 24.0673 116.513 24.1462C116.776 24.2343 116.96 24.3755 117.073 24.5658ZM116.349 22.1952C116.041 22.4178 115.51 22.539 114.731 22.539H112.172V18.3022H114.673C115.48 18.3022 116.035 18.4036 116.357 18.5912C116.666 18.7704 116.828 19.0816 116.828 19.5534V21.0861C116.828 21.6007 116.663 21.9633 116.349 22.1952Z" fill="#fff" stroke="#1E1E1E" stroke-width="0.2"/>
<path d="M62 12H64.4117V30H62V12ZM73.1452 12H75.557V30H73.1452V12ZM63.2972 19.536H74.2963V22.32H63.2972V19.536Z" fill="#fff"/>
<path d="M89.1139 30L93.3254 21.6274L94.9424 23.5239L91.8149 30H89.1139ZM105.995 30L102.885 23.5239L104.485 21.6274L108.696 30H105.995ZM100.042 27.4096L99.3671 27.0858L105.746 16.9091H108.376L99.8291 30H97.981L89.4338 16.9091H92.0637L98.443 27.0858L97.7678 27.4096V16.9091H100.042V27.4096Z" fill="#fff"/>
<path d="M77.0632 30V16.9091H79.159V28.4966L78.5204 28.2885L84.8568 16.9091H87.6075V30H85.5118V18.2506L86.1667 18.4819L79.7484 30H77.0632Z" fill="#fff"/>
<path d="M165.937 30V16.9091H169.53L173.962 28.566H173.012L177.406 16.9091H181V30H178.728V17.9037H179.362L174.651 30H172.286L167.575 17.9499L168.208 17.9268V30H165.937Z" fill="#fff"/>
<path d="M141.835 30V16.9091H144.054V27.4558L143.388 27.132L149.547 16.9091H152.073L143.883 30H141.835ZM149.786 30L146.783 23.5239L148.336 21.6274L152.38 30H149.786Z" fill="#fff"/>
<path d="M154.194 28.1485L154.194 28.149C154.435 28.7307 154.821 29.1557 155.353 29.4212C155.861 29.683 156.371 29.8494 156.881 29.9195C157.39 30.0068 158.149 30.05 159.158 30.05C159.758 30.05 160.358 30.0327 160.958 29.998L160.958 29.998L160.96 29.9978C161.468 29.9455 161.96 29.8408 162.436 29.6838C162.915 29.5262 163.286 29.3059 163.545 29.0207C164.172 28.3319 164.48 27.2433 164.48 25.7662V21.4026C164.48 20.6026 164.393 19.8965 164.218 19.285L164.218 19.285L164.218 19.2834C164.028 18.6912 163.797 18.2341 163.523 17.9155C163.247 17.5952 162.86 17.3571 162.365 17.1991L162.365 17.1991L162.364 17.1988C161.889 17.0596 161.437 16.9723 161.007 16.9373C160.594 16.885 159.978 16.8591 159.158 16.8591C158.543 16.8591 157.951 16.8765 157.382 16.9112L157.382 16.9111L157.38 16.9113C156.872 16.9637 156.372 17.0771 155.879 17.2514C155.401 17.4092 155.037 17.6386 154.793 17.9421C154.504 18.2781 154.273 18.744 154.098 19.3365C153.923 19.9309 153.836 20.6198 153.836 21.4026V25.7662C153.836 26.7565 153.955 27.5515 154.194 28.1485ZM161.453 28.0849L161.453 28.0849L161.451 28.0861C161.173 28.239 160.887 28.3321 160.595 28.3659C160.298 28.4002 159.82 28.4175 159.158 28.4175C158.496 28.4175 158.018 28.4002 157.722 28.3659C157.429 28.3321 157.144 28.239 156.865 28.0861L156.865 28.086L156.863 28.0849C156.592 27.9524 156.395 27.7375 156.274 27.4372C156.166 27.1157 156.111 26.6721 156.111 26.1039V21.013C156.111 20.2352 156.198 19.6824 156.366 19.3471L156.366 19.3471L156.366 19.3462C156.533 18.9967 156.812 18.7723 157.208 18.6719L157.208 18.6719L157.21 18.6715C157.628 18.5523 158.277 18.4916 159.158 18.4916C160.04 18.4916 160.68 18.5523 161.083 18.6713L161.083 18.6714L161.085 18.672C161.497 18.7727 161.784 18.9974 161.95 19.3462L161.95 19.3462L161.951 19.3471C162.118 19.6824 162.205 20.2352 162.205 21.013V26.1039C162.205 26.6725 162.142 27.1158 162.019 27.4367L162.019 27.4367L162.019 27.4379C161.913 27.7379 161.724 27.9525 161.453 28.0849Z" fill="#fff" stroke="#1E1E1E" stroke-width="0.1"/>
</svg>
