<svg width="60" height="40" viewBox="0 0 60 40" fill="none" xmlns="http://www.w3.org/2000/svg">
<g clip-path="url(#clip0_380_820)">
<path d="M58.7461 6.24613C58.0561 3.78742 56.0233 1.85129 53.4416 1.19419C48.7626 0 30 0 30 0C30 0 11.2375 0 6.55837 1.19419C3.97691 1.85129 1.94371 3.78742 1.25377 6.24613C0 10.7024 0 20 0 20C0 20 0 29.2975 1.25377 33.7542C1.94371 36.2126 3.97691 38.1487 6.55837 38.8061C11.2375 40 30 40 30 40C30 40 48.7626 40 53.4416 38.8061C56.0233 38.1487 58.0561 36.2126 58.7461 33.7542C60 29.2975 60 20 60 20C60 20 60 10.7024 58.7461 6.24613Z" fill="#ED1D24"/>
<path d="M24 24.6667C24 26.1766 25.6089 27.1419 26.9411 26.4315L35.6911 21.765C37.1029 21.0121 37.103 18.9886 35.6912 18.2356L26.9412 13.5687C25.609 12.8582 24 13.8236 24 15.3334V24.6667Z" fill="white"/>
</g>
<defs>
<clipPath id="clip0_380_820">
<rect width="60" height="40" fill="white"/>
</clipPath>
</defs>
</svg>
