<svg width="2146" height="486" fill="none" xmlns="http://www.w3.org/2000/svg"><path d="M208.848 0h-58.012v486h58.456V259.629h242.917L451.641 486h58.012V0h-58.012l.568 190.967H209.292L208.848 0Zm-84.012 64.513H66.823v356.974h58.013V64.513Zm468.83 0h-58.013v356.974h58.013V64.513ZM40.824 116.124H0v253.752h40.824V116.124Zm619.665 0h-40.823v253.752h40.823V116.124ZM821 88h16.588v177H821V88Zm109.412 0H947v177h-16.588V88Zm-100.941 78.352h109.941v19.588H829.471v-19.588ZM963 265V128h18.921v126.78l-7.277-1.217L1064.26 128H1089v137h-18.92V137.004l7.48 1.46L987.327 265H963Zm142 0 53.23-85.169 13.54 16.791L1129.81 265H1105Zm215.19 0-41.73-68.378 13.31-16.791L1345 265h-24.81Zm-84.81-20.927-6.09-2.434L1316.58 128h24.13l-107.59 137h-16.01l-107.82-137h24.13l87.52 113.639-6.09 2.434V128h20.53v116.073ZM1361 128h48.48c11.56 0 20.75 1.196 27.58 3.589 6.27 2.251 10.45 5.066 12.54 8.443 2.23 3.378 3.34 8.022 3.34 13.933v18.365c0 5.488-1.53 9.78-4.6 12.876-3.06 2.956-7.73 5.137-14 6.544v.845c7.39 1.266 13.31 3.87 17.76 7.81 4.6 3.8 6.9 8.585 6.9 14.355v23.009c0 9.992-3.69 17.028-11.07 21.109-7.39 4.081-19.72 6.122-36.99 6.122H1361V128Zm49.1 59.951c8.5 0 14.56-1.267 18.18-3.8 3.76-2.674 5.65-6.825 5.65-12.455v-16.043c0-5.207-1.89-8.866-5.65-10.977-3.76-2.111-10.03-3.166-18.8-3.166h-28.21v46.441h28.83Zm.84 62.906c10.17 0 17.34-1.056 21.52-3.167 4.18-2.111 6.27-5.699 6.27-10.766v-20.687c0-3.659-.76-6.544-2.3-8.655-1.39-2.251-3.62-3.87-6.68-4.855-3.07-.844-5.78-1.337-8.15-1.477-2.37-.282-5.92-.423-10.66-.423h-29.67v50.03h29.67ZM1516.31 265c-42.11 0-41.31 0-41.31-27.245v-68.177c0-16.514 0-20.861 7.02-29.556C1491.72 128 1507.9 128 1532.78 128c19.72 0 45.99 0 53.51 12.022 3.71 5.938 3.71 12.479 3.71 29.556v30.118h-89.84v38.059c0 11.93 26.07 8.949 39.53 8.949h45.06V265h-68.44Zm48.81-81.911v-21.393c0-8.257-2.49-13.886-7.46-16.889-4.8-3.19-13.09-4.785-24.88-4.785-11.43 0-19.72 1.595-24.88 4.785-5.16 3.003-7.74 8.632-7.74 16.889v21.393h64.96ZM1664.46 265c-9.15 0-15.83-.181-20.04-.544-4.02-.362-8.69-1.268-13.99-2.718-5.68-1.45-10.07-3.624-13.18-6.524-3.11-2.899-5.76-7.158-7.96-12.775-2.19-5.437-3.29-12.233-3.29-20.387v-48.385c0-14.679 2.84-25.189 8.51-31.532 3.11-3.624 6.22-6.343 9.33-8.155 3.29-1.993 7.5-3.352 12.62-4.077 5.13-.725 9.7-1.178 13.73-1.359 4.02-.363 9.7-.544 17.01-.544 12.63 0 25.25 1.359 37.88 4.077v17.941c-14.64-3.624-28.27-5.437-40.9-5.437-9.51 0-16.55.725-21.13 2.175-4.39 1.268-7.5 3.715-9.33 7.339-1.65 3.443-2.47 8.789-2.47 16.038v53.821c0 6.705.91 11.689 2.74 14.951 2.02 3.262 5.49 5.618 10.43 7.067 5.13 1.269 12.63 1.903 22.51 1.903 13.36 0 26.71-1.722 40.07-5.165v18.484c-12.44 2.538-26.62 3.806-42.54 3.806Zm58.54 0V128h16.87v121.656l-6.18-12.041L1802.4 128h18.6l-83.29 137H1723Zm46.63-52.507 8.85-14.554L1816.06 265h-17.87l-28.56-52.507ZM1900.5 265c-12.15 0-21.26-.466-27.34-1.399-6.07-.746-12.15-2.518-18.22-5.315-6.27-2.798-10.82-7.274-13.67-13.429-2.85-6.341-4.27-14.827-4.27-25.458v-47c0-8.393 1.04-15.76 3.13-22.101 2.09-6.342 4.84-11.284 8.26-14.828 2.85-3.17 7.12-5.595 12.81-7.274a85.132 85.132 0 0 1 17.94-3.636c6.84-.373 13.96-.56 21.36-.56 9.87 0 17.28.28 22.21.839 5.13.373 10.54 1.306 16.23 2.798 5.89 1.678 10.44 4.196 13.67 7.553 3.23 3.358 5.98 8.207 8.26 14.548 2.09 6.528 3.13 14.081 3.13 22.661v47c0 15.853-3.7 27.416-11.11 34.69-3.03 2.984-7.4 5.316-13.09 6.994a92.18 92.18 0 0 1-17.66 3.357c-7.21.373-14.43.56-21.64.56Zm0-16.506c7.97 0 13.76-.186 17.37-.559 3.61-.373 7.12-1.399 10.54-3.078 3.41-1.492 5.79-3.917 7.11-7.274 1.52-3.543 2.28-8.393 2.28-14.547v-54.834c0-8.392-1.04-14.454-3.13-18.184-2.09-3.917-5.69-6.435-10.82-7.554-4.94-1.305-12.72-1.958-23.35-1.958s-18.51.653-23.63 1.958c-4.94 1.119-8.45 3.637-10.54 7.554-2.09 3.73-3.13 9.792-3.13 18.184v54.834c0 6.154.66 11.004 1.99 14.547 1.52 3.357 3.99 5.782 7.4 7.274 3.42 1.679 6.93 2.705 10.54 3.078 3.61.373 9.4.559 17.37.559ZM1980 265V127h29.74l58.62 128.686h-10.5L2116.26 127H2146v138h-19.03V133.373h6.78L2072.95 265h-19.9l-60.8-131.382h6.78V265H1980ZM821 330h6.542v52.752H821V330Zm43.147 0h6.542v52.752h-6.542V330Zm-39.807 23.352h43.356v5.838H824.34v-5.838Zm57.459 29.4v-39.599h6.333v36.645l-2.436-.352 29.994-36.293h8.282v39.599h-6.333v-36.997l2.505.422-30.203 36.575h-8.142Zm47.591 0 16.424-24.617 4.176 4.853-12.945 19.764h-7.655Zm66.391 0-12.874-19.764 4.106-4.853 16.427 24.617h-7.659Zm-26.166-6.049-1.879-.703 26.932-32.847h7.442l-33.191 39.599h-4.941l-33.265-39.599h7.446L965.161 376l-1.879.703v-33.55h6.333v33.55Zm56.945 6.87c-12.01 0-18.02-4.048-18.02-12.145v-15.673c0-4.814 1.35-8.261 4.06-10.34 2.76-2.133 7.2-3.2 13.31-3.2 5.79 0 9.96 1.012 12.51 3.036 2.59 2.024 3.89 5.526 3.89 10.504v8.78h-26.38v5.99c0 2.736.94 4.705 2.84 5.909 1.89 1.203 4.82 1.805 8.77 1.805 3.73 0 8.14-.656 13.23-1.969v5.662c-4.98 1.094-9.71 1.641-14.21 1.641Zm8.45-23.879v-6.237c0-2.407-.73-4.048-2.2-4.923-1.4-.93-3.84-1.395-7.3-1.395-3.36 0-5.79.465-7.31 1.395-1.52.875-2.27 2.516-2.27 4.923v6.237h19.08Zm46.69-16.541v5.275h-25.95l2.99-2.954v37.278h-6.4v-39.599h29.36Zm23.8 40.42c-3.46 0-6.06-.137-7.79-.41-1.74-.219-3.47-.739-5.2-1.56-1.79-.82-3.08-2.133-3.9-3.938-.81-1.86-1.21-4.35-1.21-7.468v-13.786c0-2.461.29-4.622.89-6.482.59-1.86 1.38-3.31 2.35-4.35.82-.93 2.03-1.641 3.66-2.133 1.67-.547 3.38-.903 5.11-1.067 1.95-.109 3.98-.164 6.09-.164 2.82 0 4.93.082 6.33.246 1.47.11 3.01.383 4.63.821 1.68.492 2.98 1.231 3.9 2.215.92.985 1.7 2.408 2.35 4.268.6 1.914.9 4.13.9 6.646v13.786c0 4.65-1.06 8.042-3.17 10.176-.87.875-2.11 1.559-3.73 2.051-1.63.492-3.31.821-5.04.985-2.06.109-4.11.164-6.17.164Zm0-4.842c2.27 0 3.93-.054 4.95-.164a8.703 8.703 0 0 0 3.01-.902c.97-.438 1.65-1.149 2.03-2.134.43-1.039.65-2.462.65-4.267V355.18c0-2.461-.3-4.239-.9-5.333-.59-1.149-1.62-1.888-3.08-2.216-1.41-.383-3.63-.574-6.66-.574-3.03 0-5.28.191-6.74.574-1.4.328-2.41 1.067-3 2.216-.6 1.094-.89 2.872-.89 5.333v16.084c0 1.805.18 3.228.56 4.267.44.985 1.14 1.696 2.11 2.134.98.492 1.98.793 3.01.902 1.03.11 2.68.164 4.95.164Zm29.5-35.695h7.31v4.267c.6-3.392 5.06-5.088 13.4-5.088 4.98 0 8.74 1.067 11.28 3.2 2.55 2.079 3.82 4.76 3.82 8.042v16.33c0 2.352-.35 4.404-1.06 6.154-.65 1.751-1.51 3.119-2.6 4.103-.97.93-2.32 1.669-4.06 2.216-1.67.547-3.35.903-5.03 1.067-1.51.164-3.35.246-5.52.246-2.38 0-4.57-.274-6.58-.821-1.95-.601-3.16-1.449-3.65-2.544V399H1135v-55.964Zm17.7 35.531c2.82 0 4.95-.191 6.42-.574 1.51-.438 2.59-1.204 3.24-2.298.65-1.094.98-2.762.98-5.005v-14.607c0-2.462-.33-4.294-.98-5.498-.65-1.203-1.73-1.997-3.24-2.38-1.47-.437-3.63-.656-6.5-.656s-5.06.219-6.58.656c-1.46.383-2.51 1.177-3.16 2.38-.65 1.204-.98 3.036-.98 5.498v14.607c0 2.188.33 3.856.98 5.005.7 1.094 1.81 1.86 3.33 2.298 1.51.383 3.68.574 6.49.574Zm45.96 5.006c-3.46 0-6.06-.137-7.79-.41-1.73-.219-3.46-.739-5.2-1.56-1.78-.82-3.08-2.133-3.89-3.938-.82-1.86-1.22-4.35-1.22-7.468v-13.786c0-2.461.3-4.622.89-6.482.6-1.86 1.38-3.31 2.36-4.35.81-.93 2.03-1.641 3.65-2.133a23.62 23.62 0 0 1 5.12-1.067c1.94-.109 3.97-.164 6.08-.164 2.82 0 4.93.082 6.34.246 1.46.11 3 .383 4.63.821 1.67.492 2.97 1.231 3.89 2.215.92.985 1.71 2.408 2.36 4.268.59 1.914.89 4.13.89 6.646v13.786c0 4.65-1.06 8.042-3.17 10.176-.86.875-2.11 1.559-3.73 2.051-1.62.492-3.3.821-5.03.985-2.06.109-4.12.164-6.18.164Zm0-4.842c2.28 0 3.93-.054 4.96-.164a8.588 8.588 0 0 0 3-.902c.98-.438 1.65-1.149 2.03-2.134.43-1.039.65-2.462.65-4.267V355.18c0-2.461-.3-4.239-.89-5.333-.6-1.149-1.63-1.888-3.09-2.216-1.41-.383-3.62-.574-6.66-.574-3.03 0-5.27.191-6.73.574-1.41.328-2.41 1.067-3.01 2.216-.59 1.094-.89 2.872-.89 5.333v16.084c0 1.805.19 3.228.57 4.267a4.016 4.016 0 0 0 2.11 2.134c.97.492 1.97.793 3 .902 1.03.11 2.68.164 4.95.164Zm66.77-.82v15.837h-6.25v-10.996h-30.28v10.996h-6.25v-15.837h2.51c1.19 0 2.36-.903 3.49-2.708 1.14-1.86 2.09-4.814 2.84-8.863.76-4.102 1.14-9.3 1.14-15.591v-7.713h27.28v34.875h5.52Zm-12.83 0v-30.034h-13.55v5.744c0 5.69-.38 10.586-1.14 14.689-.7 4.048-2.03 7.248-3.98 9.601h18.67Zm37.46 5.662c-2.7 0-4.68-.055-5.92-.164-1.19-.11-2.57-.383-4.14-.821-1.68-.437-2.98-1.094-3.9-1.969-.92-.876-1.71-2.161-2.35-3.857-.65-1.641-.98-3.693-.98-6.154v-14.607c0-4.431.84-7.604 2.52-9.519.92-1.094 1.84-1.915 2.76-2.462.97-.601 2.22-1.012 3.73-1.231 1.52-.218 2.87-.355 4.06-.41 1.19-.109 2.87-.164 5.04-.164 3.73 0 7.47.41 11.2 1.231v5.416c-4.33-1.094-8.36-1.641-12.1-1.641-2.81 0-4.9.219-6.25.656-1.3.383-2.22 1.122-2.76 2.216-.49 1.039-.73 2.653-.73 4.841v16.248c0 2.024.27 3.529.81 4.513.6.985 1.63 1.696 3.09 2.134 1.51.383 3.73.574 6.66.574 3.95 0 7.9-.52 11.85-1.559v5.58c-3.68.766-7.88 1.149-12.59 1.149Zm21.75-40.537h7.31v17.15c.81 0 1.46-.164 1.95-.492.54-.383 1.19-.958 1.95-1.724l13.64-14.934h8.93l-17.86 18.791c.7.164 1.7.903 3 2.216 1.35 1.313 3.33 3.446 5.93 6.4l10.96 12.309h-9.01l-10.72-12.309c-1.46-1.695-2.9-3.036-4.3-4.02-1.09-.712-1.84-1.122-2.28-1.231a3.611 3.611 0 0 0-1.3-.247h-.89v17.807h-7.31v-39.716Zm52.94 40.537c-3.74 0-6.64-.356-8.69-1.067-2-.711-3.47-1.969-4.39-3.775-.86-1.805-1.3-4.403-1.3-7.795 0-3.009.41-5.334 1.22-6.975.87-1.696 2.3-2.9 4.31-3.611 2.05-.711 4.95-1.067 8.68-1.067h11.78v-6.318c0-1.477-.3-2.599-.9-3.365-.54-.82-1.49-1.395-2.84-1.723-1.3-.328-3.22-.492-5.76-.492-4.06 0-8.56.328-13.48.985v-5.416c5.36-.493 10.2-.739 14.53-.739 4.55 0 7.9.356 10.07 1.067 2.16.656 3.65 1.833 4.46 3.528.82 1.696 1.22 4.322 1.22 7.878v28.064h-7.06v-3.774c-.6 3.063-4.55 4.595-11.85 4.595Zm1.21-4.842c2.66 0 4.9-.191 6.74-.574 2.44-.492 3.66-1.641 3.66-3.446v-10.832h-11.29c-2.33 0-4.01.191-5.03.574-1.03.328-1.71.985-2.03 1.97-.33.984-.49 2.571-.49 4.759 0 1.969.19 3.501.57 4.595.38 1.04 1.05 1.806 2.03 2.298.97.438 2.43.656 4.38.656h1.46Zm62.04-35.695v39.716h-7.31v-14.278h-8.6l-9.99 14.278h-9.66l12.01-15.673c-3.08-.492-5.33-1.504-6.73-3.036-1.36-1.587-2.03-3.748-2.03-6.483v-4.267c0-2.845.37-4.978 1.13-6.401.81-1.422 2.17-2.407 4.06-2.954 1.9-.601 4.71-.902 8.45-.902H1428Zm-7.31 5.087h-10.63c-2.01 0-3.49.164-4.47.493-.97.328-1.65.902-2.03 1.723-.32.821-.49 2.024-.49 3.611v2.79c0 2.133.49 3.774 1.47 4.923 1.02 1.149 2.57 1.723 4.62 1.723h11.53v-15.263ZM1452 330h18.8c4.48 0 8.05.463 10.69 1.388 2.43.871 4.05 1.96 4.86 3.267.87 1.306 1.3 3.103 1.3 5.39v7.104c0 2.124-.59 3.784-1.78 4.982-1.19 1.143-3 1.987-5.43 2.532v.326c2.86.49 5.16 1.497 6.89 3.022 1.78 1.47 2.67 3.321 2.67 5.553v8.901c0 3.866-1.43 6.588-4.29 8.167-2.87 1.579-7.65 2.368-14.35 2.368H1452v-53Zm19.04 23.193c3.3 0 5.65-.49 7.05-1.47 1.46-1.035 2.19-2.641 2.19-4.819v-6.206c0-2.014-.73-3.43-2.19-4.247-1.46-.816-3.89-1.224-7.29-1.224h-10.94v17.966h11.18Zm.32 24.336c3.95 0 6.73-.409 8.35-1.225 1.62-.817 2.43-2.205 2.43-4.165v-8.003c0-1.416-.3-2.532-.89-3.349-.54-.871-1.4-1.497-2.59-1.878-1.19-.327-2.24-.517-3.16-.572-.92-.108-2.3-.163-4.14-.163h-11.5v19.355h11.5Zm46.15 5.77c-12.12 0-18.18-4.043-18.18-12.128V355.52c0-4.807 1.36-8.248 4.09-10.324 2.79-2.131 7.26-3.196 13.43-3.196 5.84 0 10.04 1.011 12.61 3.032 2.62 2.021 3.93 5.517 3.93 10.488v8.768h-26.61v5.982c0 2.732.95 4.698 2.86 5.9 1.92 1.202 4.86 1.803 8.85 1.803 3.76 0 8.21-.656 13.34-1.967v5.654c-5.02 1.093-9.79 1.639-14.32 1.639Zm8.51-23.845v-6.228c0-2.404-.74-4.042-2.21-4.916-1.42-.929-3.88-1.393-7.37-1.393-3.38 0-5.84.464-7.37 1.393-1.53.874-2.29 2.512-2.29 4.916v6.228h19.24Zm34.57 23.845c-2.73 0-4.72-.055-5.98-.164-1.2-.109-2.59-.382-4.18-.819-1.69-.437-3-1.093-3.93-1.967-.92-.874-1.71-2.158-2.37-3.851-.66-1.639-.98-3.688-.98-6.146v-14.586c0-4.425.84-7.593 2.54-9.505.92-1.093 1.85-1.912 2.78-2.458.98-.601 2.24-1.011 3.77-1.229 1.52-.219 2.89-.355 4.09-.41 1.2-.109 2.89-.164 5.08-.164 3.76 0 7.53.41 11.3 1.229v5.408c-4.37-1.092-8.44-1.639-12.2-1.639-2.84 0-4.94.219-6.31.656-1.31.382-2.24 1.12-2.78 2.212-.49 1.038-.74 2.65-.74 4.835v16.225c0 2.021.27 3.523.82 4.506.6.984 1.64 1.694 3.11 2.131 1.53.382 3.77.574 6.72.574 3.98 0 7.97-.519 11.95-1.557v5.572c-3.71.765-7.94 1.147-12.69 1.147Zm38.8 0c-3.49 0-6.11-.137-7.86-.41-1.75-.218-3.49-.737-5.24-1.557-1.8-.819-3.11-2.13-3.93-3.933-.82-1.857-1.23-4.343-1.23-7.457v-13.766c0-2.458.3-4.616.9-6.473.6-1.858 1.39-3.305 2.38-4.343.81-.929 2.04-1.639 3.68-2.131a24.03 24.03 0 0 1 5.16-1.065c1.96-.109 4.01-.164 6.14-.164 2.84 0 4.97.082 6.39.246 1.47.109 3.03.382 4.66.819 1.7.492 3.01 1.229 3.93 2.213.93.983 1.72 2.403 2.38 4.261.6 1.912.9 4.124.9 6.637v13.766c0 4.644-1.06 8.031-3.19 10.161-.88.874-2.13 1.557-3.77 2.049-1.64.491-3.33.819-5.08.983-2.07.109-4.15.164-6.22.164Zm0-4.835c2.29 0 3.96-.054 4.99-.164a8.74 8.74 0 0 0 3.03-.901c.99-.437 1.67-1.147 2.05-2.13.44-1.038.66-2.459.66-4.261v-16.061c0-2.458-.3-4.234-.9-5.326-.6-1.148-1.64-1.885-3.12-2.213-1.42-.382-3.65-.573-6.71-.573s-5.32.191-6.8.573c-1.42.328-2.43 1.065-3.03 2.213-.6 1.092-.9 2.868-.9 5.326v16.061c0 1.802.19 3.223.58 4.261.43.983 1.14 1.693 2.13 2.13a8.74 8.74 0 0 0 3.03.901c1.03.11 2.7.164 4.99.164Zm30.24-35.645h17.36c3.55 0 6.39.219 8.52.656 2.13.382 3.68 1.065 4.67 2.049.92.928 1.52 1.884 1.8 2.868.27.983.41 2.349.41 4.097v1.393c0 2.13-.55 3.714-1.64 4.752-1.09 1.038-2.92 1.83-5.49 2.377v.327c6.34 1.093 9.5 3.852 9.5 8.277v2.376c0 2.677-.54 4.78-1.64 6.309-1.03 1.475-2.78 2.541-5.24 3.196-2.45.656-5.89.984-10.31.984h-17.94v-39.661Zm18.02 16.717c2.18 0 3.82-.164 4.91-.492 1.09-.382 1.83-.956 2.21-1.721.38-.819.58-2.048.58-3.687v-.492c0-1.475-.22-2.567-.66-3.278-.38-.71-1.15-1.201-2.29-1.474-1.09-.328-2.76-.492-5-.492H1637v11.636h10.65Zm.33 17.617c2.56 0 4.5-.164 5.81-.491 1.31-.328 2.21-.847 2.7-1.557.49-.765.74-1.885.74-3.36v-2.622c0-1.366-.57-2.513-1.72-3.442-1.2-.874-3.58-1.311-7.12-1.311H1637v12.783h10.98Zm40.3 6.146c-3.76 0-6.69-.355-8.76-1.065-2.02-.71-3.49-1.967-4.42-3.77-.87-1.802-1.31-4.397-1.31-7.784 0-3.005.41-5.326 1.23-6.965.87-1.694 2.32-2.896 4.34-3.606 2.07-.71 4.99-1.065 8.76-1.065h11.87v-6.31c0-1.475-.3-2.594-.9-3.359-.55-.82-1.5-1.393-2.87-1.721-1.31-.328-3.24-.492-5.81-.492-4.09 0-8.62.328-13.59.984v-5.409c5.4-.491 10.29-.737 14.66-.737 4.58 0 7.97.355 10.15 1.065 2.18.656 3.68 1.83 4.5 3.524.82 1.693 1.23 4.315 1.23 7.866v28.025h-7.12v-3.77c-.6 3.059-4.59 4.589-11.96 4.589Zm1.23-4.835c2.67 0 4.94-.191 6.8-.573 2.45-.492 3.68-1.639 3.68-3.442v-10.816h-11.38c-2.35 0-4.04.191-5.08.573-1.03.328-1.72.984-2.04 1.967-.33.983-.5 2.568-.5 4.753 0 1.966.2 3.496.58 4.588.38 1.038 1.06 1.803 2.04 2.295.99.437 2.46.655 4.43.655h1.47Zm62.57-35.645v39.661h-7.37v-14.258h-8.68l-10.08 14.258h-9.74l12.12-15.651c-3.11-.492-5.38-1.503-6.8-3.032-1.36-1.585-2.04-3.742-2.04-6.474v-4.261c0-2.84.38-4.971 1.14-6.391.82-1.421 2.19-2.404 4.1-2.95 1.91-.601 4.75-.902 8.51-.902h18.84Zm-7.37 5.081h-10.73c-2.02 0-3.52.164-4.5.492-.99.327-1.67.901-2.05 1.72-.33.82-.49 2.022-.49 3.606v2.786c0 2.13.49 3.769 1.47 4.916 1.04 1.148 2.59 1.721 4.67 1.721h11.63V347.9Zm31.37 35.389V330h6.53v47.321l-2.3-1.066L1817.97 330h7.23l-43.43 53.289h-5.69Zm24.73-27.497 4.38-5.187 20.84 32.684h-7.57l-17.65-27.497ZM1846 384c-2.96 0-5.18-.118-6.67-.355-1.48-.19-2.96-.64-4.44-1.35-1.53-.711-2.64-1.848-3.34-3.411-.69-1.61-1.04-3.766-1.04-6.466v-11.936c0-2.132.25-4.003.76-5.614.51-1.61 1.19-2.865 2.02-3.765.69-.806 1.74-1.421 3.13-1.848a19.96 19.96 0 0 1 4.37-.923c1.67-.095 3.41-.143 5.21-.143 2.41 0 4.22.072 5.42.214 1.25.094 2.57.331 3.96.71 1.44.426 2.55 1.066 3.34 1.919.79.852 1.46 2.084 2.01 3.694.51 1.658.77 3.577.77 5.756v11.936c0 4.027-.91 6.964-2.71 8.811-.74.758-1.81 1.35-3.2 1.776-1.39.427-2.82.711-4.31.853-1.76.095-3.52.142-5.28.142Zm0-4.192c1.95 0 3.36-.047 4.24-.142a7.303 7.303 0 0 0 2.57-.782c.84-.379 1.42-.995 1.74-1.847.37-.9.56-2.132.56-3.695v-13.926c0-2.132-.26-3.671-.77-4.619-.51-.994-1.39-1.634-2.64-1.918-1.2-.332-3.1-.497-5.7-.497-2.59 0-4.51.165-5.76.497-1.21.284-2.06.924-2.57 1.918-.51.948-.77 2.487-.77 4.619v13.926c0 1.563.16 2.795.49 3.695.37.852.97 1.468 1.8 1.847.84.427 1.7.687 2.58.782.88.095 2.29.142 4.23.142Zm25.67-30.908h10.07l10.21 27.995h.28l9.52-27.995h9.73v34.389h-5.77v-28.563h-.35l-10.35 28.563h-6.32l-10.77-28.563h-.35v28.563h-5.9V348.9Zm51.5 0h28.41v34.389h-6.25v-29.7h-15.91v29.7h-6.25V348.9Zm50.03 35.1c-3.19 0-5.67-.308-7.43-.924-1.72-.615-2.97-1.705-3.75-3.268-.75-1.563-1.12-3.813-1.12-6.75 0-2.605.35-4.619 1.05-6.04.74-1.468 1.96-2.51 3.68-3.126 1.76-.616 4.24-.924 7.43-.924h10.08v-5.471c0-1.279-.26-2.25-.77-2.913-.46-.71-1.27-1.208-2.43-1.492-1.11-.284-2.75-.426-4.93-.426-3.48 0-7.32.284-11.54.852v-4.689c4.59-.426 8.74-.64 12.44-.64 3.89 0 6.76.308 8.62.924 1.85.569 3.12 1.587 3.82 3.055.69 1.469 1.04 3.743 1.04 6.821v24.3h-6.04v-3.268c-.51 2.653-3.9 3.979-10.15 3.979Zm1.04-4.192c2.27 0 4.2-.166 5.77-.497 2.09-.427 3.13-1.422 3.13-2.985v-9.379h-9.66c-1.99 0-3.43.166-4.31.498-.88.284-1.46.852-1.74 1.705-.27.853-.41 2.226-.41 4.121 0 1.705.16 3.032.48 3.979.33.9.91 1.563 1.74 1.989.84.379 2.09.569 3.75.569h1.25Zm26-30.908h6.25v14.282h16.53V348.9h6.26v34.389h-6.26v-15.418h-16.53v15.418h-6.25V348.9Zm69.91 0v34.389h-6.26v-25.365l-17.5 25.365h-6.26V348.9h6.26v26.218l17.85-26.218h5.91Zm37.93 0v34.389h-6.26v-12.363h-7.36l-8.55 12.363h-8.27l10.29-13.571c-2.64-.426-4.57-1.302-5.77-2.629-1.16-1.373-1.74-3.244-1.74-5.613v-3.694c0-2.464.33-4.311.98-5.543.69-1.231 1.85-2.084 3.47-2.557 1.62-.521 4.03-.782 7.23-.782h15.98Zm-6.26 4.405h-9.1c-1.71 0-2.99.142-3.82.427-.83.284-1.41.781-1.74 1.492-.28.71-.41 1.752-.41 3.126v2.416c0 1.847.41 3.268 1.25 4.263.88.995 2.2 1.492 3.96 1.492h9.86v-13.216Z" fill="#282828"/></svg>